<svg xmlns="http://www.w3.org/2000/svg" width="171.508" height="260.306" viewBox="0 0 171.508 260.306"><g transform="translate(1453.86 28.64)"><g transform="translate(-1474 -33)"><path d="M191.648,77.42A28.72,28.72,0,0,0,178.7,53.325a28.576,28.576,0,0,0,.339-4.394A28.982,28.982,0,0,0,151.149,20,29.241,29.241,0,0,0,125.2,4.36a23.266,23.266,0,0,0-19.316,10.91A23.524,23.524,0,0,0,86.308,4.36,29.1,29.1,0,0,0,60.639,20,28.984,28.984,0,0,0,32.75,48.931a28.578,28.578,0,0,0,.339,4.394,28.889,28.889,0,0,0-11.976,31.53,4.506,4.506,0,0,0-.161.91l-.029,0a85.484,85.484,0,0,0,31.863,72.11,23.567,23.567,0,0,1,8.851,18.6A32.375,32.375,0,0,0,71.2,199.5c.373.373.781.7,1.169,1.054v29.175a26.6,26.6,0,0,0,23.1,26.326c-.006.112-.043.218-.043.33,0,4.572,4.687,8.277,10.468,8.277s10.468-3.7,10.468-8.277c0-.112-.037-.218-.043-.33a26.6,26.6,0,0,0,23.1-26.326V200.566a32.416,32.416,0,0,0,10.709-24.095,23.7,23.7,0,0,1,2.4-10.416,25.183,25.183,0,0,1,6.766-8.432,84.8,84.8,0,0,0,31.763-66.3c0-2.01-.069-3.851-.215-5.635l-.026,0a4.454,4.454,0,0,0-.138-.79A28.825,28.825,0,0,0,191.648,77.42ZM125.48,12.976a20.41,20.41,0,0,1,18.9,12.932,4.415,4.415,0,0,0,4.308,2.737c.477-.023.951-.049,1.4-.049a20.326,20.326,0,0,1,19.6,25.743,4.3,4.3,0,0,0,2.211,4.983,19.987,19.987,0,0,1,10.623,22.415h-71.8V28.225A15.085,15.085,0,0,1,125.48,12.976ZM39.89,59.325A4.3,4.3,0,0,0,42.1,54.342,20.326,20.326,0,0,1,61.7,28.6c.451,0,.925.026,1.485.052a4.275,4.275,0,0,0,4.227-2.743A20.464,20.464,0,0,1,86.489,12.976c8.041.086,14.58,6.93,14.58,15.25V81.739H29.264A19.985,19.985,0,0,1,39.89,59.325ZM98.438,213.187a2.872,2.872,0,0,0,2.8,2.243,3,3,0,0,0,.632-.069l28.925-6.479v7.32L80.983,227.377V220.04l11.628-2.6a2.872,2.872,0,0,0-1.255-5.606l-10.37,2.323v-9.693h43.27l-23.641,5.3A2.868,2.868,0,0,0,98.438,213.187ZM112.826,247.7H98.952a17.873,17.873,0,0,1-9.942-3.013l22.527-5.06a2.871,2.871,0,1,0-1.255-5.6l-26.134,5.87a17.86,17.86,0,0,1-2.823-6.706l49.471-11.1v7.329l-11.72,2.631a2.872,2.872,0,0,0,.626,5.675,3,3,0,0,0,.632-.069l9.489-2.131A17.992,17.992,0,0,1,112.826,247.7Zm41.059-96.785a33.831,33.831,0,0,0-9.107,11.358,32.311,32.311,0,0,0-3.274,14.2,23.827,23.827,0,0,1-9.928,19.374H80.188a23.656,23.656,0,0,1-9.934-19.374,32.13,32.13,0,0,0-12.1-25.333A76.848,76.848,0,0,1,29.39,90.355H182.412c0,.325.017.632.017.965A76.247,76.247,0,0,1,153.885,150.914Z"/><path d="M39.7,68.416a10.275,10.275,0,0,0,9.606-6.7h1.166a19.945,19.945,0,0,0,6.522-1.109A10.273,10.273,0,1,0,69.425,48.173a19.945,19.945,0,0,0,1.109-6.522V29.784a10.29,10.29,0,1,0-7.18,0V41.654A12.9,12.9,0,0,1,50.471,54.54H49.305A10.275,10.275,0,1,0,39.7,68.416Zm27.251-7.18a3.11,3.11,0,1,1,3.113-3.11A3.113,3.113,0,0,1,66.947,61.237Zm0-44.175a3.11,3.11,0,1,1-3.11,3.11A3.115,3.115,0,0,1,66.947,17.062ZM39.7,55.016a3.082,3.082,0,0,1,3.047,2.8c-.009.109-.063.2-.063.313s.055.2.063.313a3.081,3.081,0,0,1-3.047,2.8,3.112,3.112,0,0,1,0-6.223Z" transform="translate(17.345 10.342)"/><path d="M53.886,58.128A10.272,10.272,0,0,0,74.13,60.61a19.944,19.944,0,0,0,6.522,1.109h1.166a10.286,10.286,0,1,0,0-7.18H80.649A12.9,12.9,0,0,1,67.766,41.653V29.783a10.29,10.29,0,1,0-7.18,0V41.653a19.944,19.944,0,0,0,1.109,6.522A10.281,10.281,0,0,0,53.886,58.128Zm37.538-3.11a3.11,3.11,0,1,1,0,6.22,3.084,3.084,0,0,1-3.047-2.8c.009-.109.063-.2.063-.313s-.055-.2-.063-.313A3.081,3.081,0,0,1,91.424,55.018ZM64.176,17.064a3.11,3.11,0,1,1-3.11,3.11A3.113,3.113,0,0,1,64.176,17.064Zm0,37.955a3.11,3.11,0,1,1-3.11,3.11A3.113,3.113,0,0,1,64.176,55.018Z" transform="translate(63.168 10.34)"/></g></g></svg>