<svg xmlns="http://www.w3.org/2000/svg" width="164.516" height="141.025" viewBox="0 0 164.516 141.025">
  <g id="XMLID_15_" transform="translate(-1308.7 -432.1)">
    <g id="XMLID_17_" transform="translate(1308.7 434.217)">
      <path id="XMLID_59_" d="M1430.967,435.6c1.875.484,3.691.968,5.566,1.391a1.868,1.868,0,0,1,1.573,1.754.363.363,0,0,0,.061.242c2.239,4.779-.847,7.8-3.751,10.769a2.957,2.957,0,0,1-2.238.605,15.585,15.585,0,0,0-8.652-.121,2.118,2.118,0,0,1-2.541-.968,49.325,49.325,0,0,1-2.964-4.84,4.244,4.244,0,0,1-.182-2.48,25.8,25.8,0,0,1,.907-4.174,1.868,1.868,0,0,1,1.15-1.089c1.573-.424,3.207-.726,4.84-1.089Z" transform="translate(-1351.773 -435.6)" fill="#fdd84d"/>
      <path id="XMLID_58_" d="M1537.1,540c-1.331,2.783-2.662,5.505-3.993,8.288-.363.786-.908.786-1.694.605-5.142-.968-7.2-4.84-8.349-9.256a5.927,5.927,0,0,1,2-6.11c2.178-1.875,4.6-3.569,6.9-5.324,1.271-.968,2.6-.605,3.872-.121.3.121.484.665.544,1.029.3,1.27.484,2.541.726,3.811Z" transform="translate(-1393.297 -471.938)" fill="#fdd84d"/>
      <path id="XMLID_57_" d="M1473.649,650.427a46.873,46.873,0,0,1-4.417-3.328c-2.359-2.178-3.085-5.082-3.448-8.167-.363-2.965-.787-5.99-1.089-8.954a9.114,9.114,0,0,1,.363-2.178,7.289,7.289,0,0,1,1.936,1.029c1.21,1.331,2.3,2.783,3.449,4.235.786,1.029,1.512,2.057,2.359,3.025a5.469,5.469,0,0,1,1.512,4.356,4.237,4.237,0,0,0,1.815,3.63,16.07,16.07,0,0,0,2.722,1.755c1.028.484,1.21,1.21.6,2a25.786,25.786,0,0,1-2.541,2.6Z" transform="translate(-1370.315 -511.52)" fill="#fdd84d"/>
      <path id="XMLID_56_" d="M1308.7,491.8c.6-2.48,1.149-5.021,1.875-7.5.544-1.936,1.331-3.811,1.936-5.687.3-.847.786-.907,1.573-.544a2.341,2.341,0,0,1,1.573,2.3c0,2.6.061,5.263-.06,7.865a3.294,3.294,0,0,1-1.21,2.178,37.589,37.589,0,0,1-4.9,2.541c-.181.121-.484,0-.726,0A7.331,7.331,0,0,1,1308.7,491.8Z" transform="translate(-1308.7 -452.29)" fill="#fdd84d"/>
      <path id="XMLID_55_" d="M1479.476,613.043c-1.512.3-2.662-.545-3.751-1.875-1.875-2.3-3.872-4.537-5.808-6.836a5.023,5.023,0,0,1,.242-6.776c.726-.726,1.392-1.452,2.057-2.178,1.754-2,2.057-2.057,4.417-1.028a8.205,8.205,0,0,0,5.626.484,9.4,9.4,0,0,0,6.594-7.5,8.743,8.743,0,0,0-4.9-8.954c-1.573-.786-1.815-1.331-1.634-3.025.182-1.452.242-2.9.484-4.356.484-2.843,2.057-4.3,4.9-4.3,3.146,0,6.352.3,9.5.424.3,0,.605.06.908.06a4.963,4.963,0,0,1,4.114,2c2.481,2.9,2.481,3.146.242,6.231-4.9,6.776-9.74,13.552-14.762,20.267a26.965,26.965,0,0,0-5.626,15.548c-.061,1.754-.121,1.754-1.875,1.754C1480.2,613.043,1479.96,613.043,1479.476,613.043Z" transform="translate(-1371.908 -487.385)" fill="#fdd84d"/>
      <path id="XMLID_54_" d="M1496.222,469.847c-3.146-.181-5.747-.363-8.409-.484a3.288,3.288,0,0,1-3.086-2.42c-1.149-2.9-3.025-5.142-6.231-5.808a13.092,13.092,0,0,0-3.448-.121,3.54,3.54,0,0,1-3.388-1.754c-2.057-3.085-4.114-6.05-6.232-9.075-1.331-1.936-1.391-3.69-.06-5.082a1.684,1.684,0,0,1,1.391-.423,54.619,54.619,0,0,1,31.52,19.844,2.836,2.836,0,0,1,.242,3.569C1497.916,469.3,1497.069,469.968,1496.222,469.847Z" transform="translate(-1370.202 -439.174)" fill="#fdd84d"/>
      <path id="XMLID_53_" d="M1453.5,583.512c-.181.666-.3,1.15-.484,1.633a9.373,9.373,0,0,0,.423,7.441,2.969,2.969,0,0,1-.605,3.872c-1.089,1.029-2.117,2.117-3.207,3.207a2.278,2.278,0,0,1-.907.544c-.726.3-1.089.121-1.21-.786a25.892,25.892,0,0,0-.786-4.416,12.967,12.967,0,0,0-7.2-7.925,96.583,96.583,0,0,0-17.182-6.05,1.453,1.453,0,0,1-.908-2.48,3.922,3.922,0,0,1,1.21-1.029c2.9-1.573,5.808-3.206,8.772-4.719,1.391-.726,2-.6,3.146.545,3.086,3.146,6.231,3.811,10.345,2.117,1.512-.665,2.238-.484,3.267.786,1.452,1.755,2.9,3.448,4.235,5.2A5.631,5.631,0,0,1,1453.5,583.512Z" transform="translate(-1353.067 -489.617)" fill="#fdd84d"/>
      <path id="XMLID_52_" d="M1381.348,556.4c2.48.484,4.658,1.27,5.929,3.69,1.452,2.783,2.965,5.505,4.477,8.228a4.215,4.215,0,0,1,.242,4.3,1.462,1.462,0,0,1-1.149.6c-8.47-1.573-16.94-3.267-25.41-4.9a24.042,24.042,0,0,1-2.964-.908.923.923,0,0,1-.726-1.331c.182-.726.363-1.513.6-2.238a3.1,3.1,0,0,1,2.118-2.117c5.142-1.634,10.285-3.327,15.367-5.021C1380.319,556.581,1380.8,556.521,1381.348,556.4Z" transform="translate(-1329.621 -483.316)" fill="#fdd84d"/>
      <path id="XMLID_51_" d="M1472.929,548.895c-1.633-.121-3.327-.242-4.961-.3a3.044,3.044,0,0,1-2.844-2.359,7.441,7.441,0,0,0-3.085-4.053c-1.815-1.452-1.936-1.815-1.21-4.053,1.029-3.085,2-6.231,3.025-9.377.968-2.964,2.843-3.751,5.626-2.238l4.356,2.359a1.993,1.993,0,0,1,1.149,2.178,5.846,5.846,0,0,0,3.025,6.231,3.5,3.5,0,0,1,1.452,2.239,32.98,32.98,0,0,1-.424,6.473c-.3,1.936-1.694,2.844-3.63,2.844h-2.541C1472.929,548.834,1472.929,548.834,1472.929,548.895Z" transform="translate(-1368.628 -471.213)" fill="#fdd84d"/>
      <path id="XMLID_50_" d="M1337.616,543.468c0,1.149.061,2.238,0,3.388a3.69,3.69,0,0,1-1.875,3.146,5.147,5.147,0,0,0-1.513,1.513c-.484.847-1.028.907-1.815.424-2.964-2.057-5.989-4.114-8.893-6.231-2.057-1.513-4.114-3.025-6.11-4.6a15.3,15.3,0,0,1-4.658-6.534,1.941,1.941,0,0,1-.061-.847,2.62,2.62,0,0,1,.968.061c2.9,1.149,5.868,1.633,8.893.484a15.7,15.7,0,0,0,3.811-2.117,3.378,3.378,0,0,1,3.57-.544c1.391.6,2.722,1.27,4.053,1.936a2.67,2.67,0,0,1,1.573,2.48,1.74,1.74,0,0,0,.545,1.21,4.037,4.037,0,0,1,1.633,3.872c-.06.786,0,1.573,0,2.3C1337.677,543.468,1337.677,543.468,1337.616,543.468Z" transform="translate(-1310.27 -473.41)" fill="#fdd84d"/>
      <path id="XMLID_49_" d="M1425.278,548.6c-2.178-.484-4.356-.907-6.534-1.391-3.146-.665-6.353-1.331-9.5-2.057-1.15-.242-2.481-.544-2.783-1.755s.666-2.057,1.512-2.783c3.267-2.722,6.534-5.445,9.74-8.228a2.53,2.53,0,0,1,2.6-.484c1.331.424,2.723.544,4.054,1.029a3.781,3.781,0,0,1,1.815,1.392c1.331,2.48,2.48,5.021,3.691,7.623a2.965,2.965,0,0,1-.605,3.69,3.783,3.783,0,0,0-.6.968A3.8,3.8,0,0,1,1425.278,548.6Z" transform="translate(-1347.294 -473.576)" fill="#fdd84d"/>
      <path id="XMLID_48_" d="M1434.991,496.2v-3.025a1.7,1.7,0,0,1,1.513-1.876,12.129,12.129,0,0,0,9.256-7.925,2.106,2.106,0,0,1,2.42-1.391c2.057.242,4.114.544,6.171.847a1.964,1.964,0,0,1,1.089.6c1.331,1.391,1.15,5.021-.363,6.292-4.356,3.57-8.712,7.078-13.068,10.587-.484.363-.968.726-1.452,1.149a2.829,2.829,0,0,1-3.509.544,2.966,2.966,0,0,1-2.057-3.206,12.458,12.458,0,0,0,0-2.6Z" transform="translate(-1358.58 -453.915)" fill="#fdd84d"/>
      <path id="XMLID_47_" d="M1505.562,555.175c-2.42-.121-4.78-.182-7.2-.3-2.3-.121-3.751-1.271-4.053-3.57a33.007,33.007,0,0,1,0-5.99c.06-1.21,1.028-1.875,2.057-2.42a10.465,10.465,0,0,0,2.481-1.815c.665-.605,1.21-1.21,2.178-1.089,1.755.242,3.63.424,5.021,1.755,1.452,1.331,2.965,2.6,4.356,3.993,1.694,1.694,2.42,4.053,3.085,6.292.545,1.815-1.21,3.327-3.388,3.206-.786-.06-1.512-.121-2.3-.121h-2.3A.059.059,0,0,1,1505.562,555.175Z" transform="translate(-1381.961 -476.828)" fill="#fdd84d"/>
      <path id="XMLID_46_" d="M1426.274,562.157a2.57,2.57,0,0,1-1.573,2.783c-3.025,1.694-6.05,3.388-9.135,4.961a4.046,4.046,0,0,1-5.2-1.513c-1.815-3.509-3.63-7.078-5.264-10.708-.847-1.875.121-3.085,2.057-2.722,5.505,1.15,11.011,2.3,16.516,3.509C1425.911,559.072,1426.153,559.5,1426.274,562.157Z" transform="translate(-1346.656 -482.722)" fill="#fdd84d"/>
      <path id="XMLID_45_" d="M1459.4,468.73c-2.36-.3-4.356-.544-6.292-.847a2.246,2.246,0,0,1-1.875-1.936,14.056,14.056,0,0,0-3.509-7.32,1.957,1.957,0,0,1-.121-2.662c1.028-1.392,2-2.844,3.025-4.235,1.936-2.662,4.6-2.6,6.353.242,2.117,3.328,4.174,6.655,6.231,10.043.847,1.391,1.21,2.42-.182,3.872-.6.6-1.028,1.452-1.694,2A8.177,8.177,0,0,1,1459.4,468.73Z" transform="translate(-1363.383 -441.203)" fill="#fdd84d"/>
      <path id="XMLID_44_" d="M1356.2,545.894v-1.633c.06-2.3,1.573-3.449,3.872-2.783,5.142,1.573,10.345,3.146,15.488,4.719a7.4,7.4,0,0,1,1.634.545,11.272,11.272,0,0,1,1.573,1.391c-.545.544-.968,1.391-1.634,1.573-2.48.847-5.021,1.573-7.5,2.3-2.662.786-5.385,1.452-7.986,2.359a3.919,3.919,0,0,1-5.082-3.69C1356.442,549.161,1356.321,547.649,1356.2,545.894Z" transform="translate(-1327.463 -477.348)" fill="#fdd84d"/>
      <path id="XMLID_43_" d="M1492.242,497.7a8.592,8.592,0,0,1,1.391.786c3.146,2.662,6.292,5.384,9.377,8.107,2.057,1.755,2,3.206-.06,4.84-1.573,1.271-3.267,2.48-4.9,3.751a4.365,4.365,0,0,1-6.292-.907,6.727,6.727,0,0,1-1.15-2.6c-.666-3.388-1.21-6.776-1.875-10.1C1488.189,499.091,1489.883,498.184,1492.242,497.7Z" transform="translate(-1379.773 -460.13)" fill="#fdd84d"/>
      <path id="XMLID_42_" d="M1348.423,513.823c-.061.605-.121,1.513-.242,2.42a1.22,1.22,0,0,1-1.573,1.15,7.339,7.339,0,0,1-1.936-.665c-1.15-.666-2.239-1.513-3.388-2.239a2.1,2.1,0,0,1-.907-2.722,12.342,12.342,0,0,0-1.15-10.587,2.737,2.737,0,0,1,.121-3.086c1.452-1.875,2.9-3.69,4.537-5.445a2.791,2.791,0,0,1,2.117-.666,2.3,2.3,0,0,1,1.694,2.239q.272,8.349.544,16.7C1348.3,511.826,1348.362,512.673,1348.423,513.823Z" transform="translate(-1320.593 -457.861)" fill="#fdd84d"/>
      <path id="XMLID_41_" d="M1337.531,483.056a13.644,13.644,0,0,1-1.512,2.48c-1.452,1.633-3.025,3.085-4.537,4.658a2.029,2.029,0,0,1-2.359.484c-1.512-.544-2.964-1.089-4.417-1.573a1.812,1.812,0,0,1-1.452-1.815c-.121-2.48-.242-4.961-.363-7.381a3.74,3.74,0,0,1,1.513-3.327c.423-.363.847-.665,1.21-1.029a2.228,2.228,0,0,1,2.541-.484c2.117.786,4.235,1.513,6.231,2.42a4.249,4.249,0,0,1,1.875,1.694A20.748,20.748,0,0,1,1337.531,483.056Z" transform="translate(-1314.299 -451.113)" fill="#fdd84d"/>
      <path id="XMLID_40_" d="M1416.209,519.185a6.838,6.838,0,0,1-2.48,5.626c-2.844,2.42-5.687,4.9-8.531,7.32a1.453,1.453,0,0,1-.484.363c-.544.182-1.15.3-1.694.484a4.7,4.7,0,0,1-.242-1.815c1.15-5.566,2.359-11.071,3.57-16.637.6-2.783,2.057-3.388,4.537-2a21.472,21.472,0,0,0,2,1.15A5.515,5.515,0,0,1,1416.209,519.185Z" transform="translate(-1345.848 -465.703)" fill="#fdd84d"/>
      <path id="XMLID_39_" d="M1448.051,538.586a3.052,3.052,0,0,1-3.509-2.117c-.968-2.117-2.178-4.174-3.327-6.231-.666-1.21-.968-2.359.182-3.448a2.635,2.635,0,0,0,.484-.907,3.542,3.542,0,0,1,3.327-2.6c2.359-.242,4.78-.363,7.139-.484,2.42-.121,3.63,1.512,2.783,3.751-1.271,3.569-2.6,7.078-3.932,10.648C1450.592,538.707,1449.2,538.465,1448.051,538.586Z" transform="translate(-1360.81 -470.04)" fill="#fdd84d"/>
      <path id="XMLID_38_" d="M1409.331,483.821v.484a13.2,13.2,0,0,1-4.78,6.352c-.907.666-1.755-.121-2.238-1.028-.726-1.271-1.331-2.481-2-3.812-1.512-3.025-2.964-6.11-4.477-9.135a3.086,3.086,0,0,1,.121-3.69,2.975,2.975,0,0,1,3.57-.847c1.875.605,3.811,1.089,5.626,1.755a2.273,2.273,0,0,1,1.452,1.331c.968,2.6,1.755,5.263,2.662,7.865A1.9,1.9,0,0,0,1409.331,483.821Z" transform="translate(-1342.902 -449.941)" fill="#fdd84d"/>
      <path id="XMLID_37_" d="M1502.237,487.7c1.633.061,3.267.181,4.84.3a6.138,6.138,0,0,1,5.324,5.2,5.912,5.912,0,0,1,0,2.723c-.484,1.936-1.089,3.872-1.755,5.747-.6,1.633-1.875,2-3.207.908-3.448-3.025-6.9-6.05-10.285-9.2-.968-.907-.726-2.178-.363-3.267a3.2,3.2,0,0,1,2.662-2.238,19.538,19.538,0,0,1,2.662,0C1502.237,487.76,1502.237,487.7,1502.237,487.7Z" transform="translate(-1382.871 -456.18)" fill="#fdd84d"/>
      <path id="XMLID_36_" d="M1355.9,515.923v-1.331c.06-6.957.181-13.915.242-20.872a2.569,2.569,0,0,1,1.633-2.662c.242-.121.484-.3.726-.423.847-.424,1.755-1.331,2.481-1.15a6.057,6.057,0,0,1,4.174,2.662,5.562,5.562,0,0,1,.423,5.808c-2.9,5.747-5.747,11.495-8.591,17.3a8.136,8.136,0,0,1-.665.847C1356.2,516.044,1356.021,515.983,1355.9,515.923Z" transform="translate(-1327.344 -456.875)" fill="#fdd84d"/>
      <path id="XMLID_35_" d="M1462.675,498.295a7.669,7.669,0,0,1-.363,1.089c-.847,2.057-1.694,4.114-2.48,6.231-1.331,3.448-4.174,4.84-7.441,5.445-2.239.423-4.538.484-6.776.726a2.62,2.62,0,0,1-2.48-1.331c-.363-1.15.3-1.815,1.089-2.42,3.751-2.9,7.563-5.747,11.313-8.651a47.117,47.117,0,0,1,3.932-2.9,2.352,2.352,0,0,1,2-.181c.665.363.968,1.21,1.452,1.815A.324.324,0,0,0,1462.675,498.295Z" transform="translate(-1361.761 -459.515)" fill="#fdd84d"/>
      <path id="XMLID_34_" d="M1405.672,449a3.581,3.581,0,0,1,3.448,2.178c.6,1.331,1.331,2.6,2.057,3.872A2.734,2.734,0,0,1,1411,458.2c-.908,1.271-1.815,2.48-2.662,3.811a2.313,2.313,0,0,1-2.541,1.149c-2.3-.363-4.6-.726-6.837-1.21-2.541-.484-3.448-2.844-1.936-4.961s3.146-4.174,4.78-6.231A4.632,4.632,0,0,1,1405.672,449Z" transform="translate(-1343.297 -440.893)" fill="#fdd84d"/>
      <path id="XMLID_33_" d="M1472.968,565.5c1.21.121,3.267.242,5.324.423,1.694.182,2.9,2.178,2.662,4.174a47.8,47.8,0,0,1-.666,5.143,2.549,2.549,0,0,1-1.271,1.573,27.813,27.813,0,0,1-3.993,1.21,3.419,3.419,0,0,1-3.327-.847c-1.513-1.513-3.025-3.085-4.6-4.6a2.492,2.492,0,0,1-.665-2.541C1467.281,566.65,1468.733,565.5,1472.968,565.5Z" transform="translate(-1370.966 -486.911)" fill="#fdd84d"/>
      <path id="XMLID_32_" d="M1351.3,457.972c0-2.3,1.028-2.964,2.844-2.178,2.964,1.331,5.869,2.722,8.772,4.114,1.694.786,3.388,1.634,5.082,2.48a5.221,5.221,0,0,1,.968.6c1.028,1.029.907,1.936-.484,2.48-2.844,1.089-5.687,2.117-8.651,2.965-.786.242-1.815-.3-2.662-.605-.726-.242-1.391-.786-2.178-1.029a2.743,2.743,0,0,1-2.057-1.815C1352.328,462.449,1351.784,459.908,1351.3,457.972Z" transform="translate(-1325.527 -443.452)" fill="#fdd84d"/>
      <path id="XMLID_31_" d="M1471.5,510.377a12.6,12.6,0,0,1,.423-1.573c1.029-2.3,2-4.6,3.085-6.836a3.179,3.179,0,0,1,4.477-1.27,1.873,1.873,0,0,1,.786,1.21c.968,4.235,1.875,8.53,2.783,12.765a2.528,2.528,0,0,1-1.15,2.6,2.276,2.276,0,0,1-2.722.242c-1.815-.968-3.63-2-5.505-2.965C1472.105,513.7,1471.621,512.252,1471.5,510.377Z" transform="translate(-1373.007 -461.13)" fill="#fdd84d"/>
      <path id="XMLID_30_" d="M1366.376,444.19a3.783,3.783,0,0,1,.847.242c1.633,1.21,3.328,2.238,4.053,4.3.545,1.512,1.089,3.025,1.634,4.6.06.242.242.484.181.666-.121.786-.06,1.936-.544,2.359a2.864,2.864,0,0,1-2.359.121c-3.691-1.512-7.32-3.146-10.95-4.719-.908-.424-1.875-.786-2.723-1.27a4.852,4.852,0,0,1-1.573-1.331,1.922,1.922,0,0,1,.121-1.391c.06-.242.423-.424.726-.544,3.327-1.029,6.655-2,9.982-2.964C1365.892,444.13,1366.013,444.19,1366.376,444.19Z" transform="translate(-1326.93 -438.987)" fill="#fdd84d"/>
      <path id="XMLID_29_" d="M1395.969,494.34c-1.331-.484-2.36-.908-3.388-1.331-3.085-1.271-6.231-2.48-9.317-3.811-2.6-1.089-3.267-2.783-2.118-5.384l2.178-4.719a2.772,2.772,0,0,1,2.783-1.694,2.623,2.623,0,0,1,2.541,1.633c2.239,4.538,4.6,9.014,6.836,13.491A9.678,9.678,0,0,1,1395.969,494.34Z" transform="translate(-1337.102 -452.111)" fill="#fdd84d"/>
      <path id="XMLID_28_" d="M1337.866,454.8a3.5,3.5,0,0,1,2.964,2.541c.424,2.541.787,5.082,1.089,7.683.242,1.754-2.117,3.69-3.993,3.146-2.42-.665-4.84-1.452-7.26-2.238-1.875-.605-2.541-2.359-3.388-3.872-.121-.181.121-.726.3-.847,3.267-2.117,6.594-4.174,9.862-6.231C1337.564,454.86,1337.806,454.86,1337.866,454.8Z" transform="translate(-1316.026 -443.184)" fill="#fdd84d"/>
      <path id="XMLID_27_" d="M1381.276,539.757c.061,1.15-.847,1.694-2,1.392-1.21-.3-2.42-.726-3.63-1.15-4.537-1.452-9.075-2.9-13.673-4.356a3.21,3.21,0,0,1-1.029-.484.841.841,0,0,1-.121-1.513,8.663,8.663,0,0,1,.908-.665c2.3-1.089,4.6-2.239,6.9-3.267a2.39,2.39,0,0,1,1.815.121,55.609,55.609,0,0,1,5.2,2.178,6.1,6.1,0,0,1,2.239,1.875,48.81,48.81,0,0,1,2.9,4.84A2.554,2.554,0,0,1,1381.276,539.757Z" transform="translate(-1329.125 -472.723)" fill="#fdd84d"/>
      <path id="XMLID_26_" d="M1383.5,445.137a11.6,11.6,0,0,1,.181-1.331c.484-2.057.847-2.42,2.965-2.662,2.662-.242,5.385-.423,8.107-.544a1.418,1.418,0,0,1,1.089.665c.968,2.117,1.21,4.174-.665,6.05-1.633,1.694-3.025,3.63-4.6,5.384-1.875,2.117-4.114,1.694-5.082-.907-.666-1.754-1.21-3.509-1.755-5.263A3.186,3.186,0,0,1,1383.5,445.137Z" transform="translate(-1338.246 -437.575)" fill="#fdd84d"/>
      <path id="XMLID_25_" d="M1522.2,505.838a5.184,5.184,0,0,1,.182-1.028c.544-1.815,1.089-3.63,1.633-5.384.484-1.512,2.9-2.6,4.3-1.875a1.926,1.926,0,0,1,.786.908c1.633,3.206,3.207,6.413,4.78,9.619a2.472,2.472,0,0,1-.061,2.723,2.356,2.356,0,0,1-2.723.786c-2.117-.605-4.235-1.089-6.352-1.755C1523.107,509.347,1522.2,508.016,1522.2,505.838Z" transform="translate(-1393.033 -459.979)" fill="#fdd84d"/>
      <path id="XMLID_24_" d="M1413,501.417a11.788,11.788,0,0,1,1.15-2.48,34.95,34.95,0,0,1,3.206-3.509,2.387,2.387,0,0,1,2.783-.484,22.412,22.412,0,0,1,3.267,1.452,2.441,2.441,0,0,1,1.15,1.634,38.152,38.152,0,0,1,.484,6.413,3.594,3.594,0,0,1-4.78,3.085,32.825,32.825,0,0,1-5.929-3.569C1413.6,503.413,1413.423,502.324,1413,501.417Z" transform="translate(-1349.899 -458.946)" fill="#fdd84d"/>
      <path id="XMLID_23_" d="M1391,524.379a10.6,10.6,0,0,1,.666-1.452,7.5,7.5,0,0,0,1.513-4.9,3.122,3.122,0,0,1,1.27-2.722c1.452-1.089,2.9-2.178,4.417-3.206a1.764,1.764,0,0,1,1.634-.181c.242.121.363,1.029.242,1.512-1.15,5.687-2.359,11.313-3.569,16.94-.06.121,0,.363-.121.424-.363.544-.726,1.391-1.21,1.512-.484.061-1.21-.6-1.512-1.089-1.029-1.815-2-3.63-2.9-5.505A3.83,3.83,0,0,1,1391,524.379Z" transform="translate(-1341.209 -465.694)" fill="#fdd84d"/>
      <path id="XMLID_22_" d="M1358.1,521.567c.3-.726.423-1.27.666-1.755,2.964-5.868,5.869-11.737,8.833-17.545.182-.3.363-.6.545-.847.726-.847,1.452-.786,1.755.3.545,1.875.968,3.811,1.391,5.747a2.486,2.486,0,0,1-.726,2.541,7.178,7.178,0,0,0-2.3,5.505,1.893,1.893,0,0,1-1.149,1.815c-2.723,1.331-5.385,2.662-8.107,3.993A7.647,7.647,0,0,1,1358.1,521.567Z" transform="translate(-1328.213 -461.37)" fill="#fdd84d"/>
      <path id="XMLID_21_" d="M1387.567,509.163a12.6,12.6,0,0,1-5.868-2.3c-.847-.666-2.3-6.473-1.936-7.441a1.4,1.4,0,0,1,1.936-.907c2.48.907,4.9,1.815,7.381,2.722,1.452.544,2.9,1.089,4.3,1.754,1.331.605,1.694,1.694.6,2.481a64.063,64.063,0,0,1-5.868,3.69A1.465,1.465,0,0,0,1387.567,509.163Z" transform="translate(-1336.748 -460.4)" fill="#fdd84d"/>
      <path id="XMLID_20_" d="M1374.659,474.382c1.392,0,2.178.786,1.694,2.057-1.21,3.267-2.359,6.655-5.626,8.591a1.709,1.709,0,0,1-1.331.06,22.112,22.112,0,0,1-3.267-1.936c-2.178-1.512-2.238-4.6.121-5.808a74.33,74.33,0,0,1,7.986-2.965C1374.356,474.322,1374.538,474.382,1374.659,474.382Z" transform="translate(-1330.736 -450.909)" fill="#fdd84d"/>
      <path id="XMLID_19_" d="M1519.865,525.966c0-1.029-.061-2.117,0-3.146a3.354,3.354,0,0,1,4.174-2.783,61.814,61.814,0,0,1,6.473,2.057c1.089.363,1.21.726.3,1.513-1.815,1.573-3.691,3.025-5.627,4.477q-1.634,1.271-3.267,2.359c-1.21.786-1.936.484-2.057-.968a35.166,35.166,0,0,1,0-3.569Z" transform="translate(-1392.09 -468.915)" fill="#fdd84d"/>
      <path id="XMLID_18_" d="M1512.278,527.1a26.772,26.772,0,0,1-.181,2.964,2.547,2.547,0,0,1-3.025,2.239,18.63,18.63,0,0,1-4.114-1.029,3.2,3.2,0,0,1-.665-5.626c1.512-1.15,3.085-2.3,4.719-3.388,1.815-1.21,2.783-.786,3.025,1.331C1512.157,524.683,1512.157,525.833,1512.278,527.1Z" transform="translate(-1385.41 -469.568)" fill="#fdd84d"/>
    </g>
    <line id="XMLID_16_" y2="141.024" transform="translate(1473.216 432.1)" fill="#fed22c"/>
  </g>
</svg>
