<svg id="XMLID_15_" xmlns="http://www.w3.org/2000/svg" width="55.83" height="47.858" viewBox="0 0 55.83 47.858">
  <g id="XMLID_17_" transform="translate(0 0.719)">
    <path id="XMLID_59_" d="M1422.232,435.6c.636.164,1.252.329,1.889.472a.634.634,0,0,1,.534.6.124.124,0,0,0,.021.082c.76,1.622-.287,2.649-1.273,3.655a1,1,0,0,1-.76.205,5.288,5.288,0,0,0-2.936-.041.719.719,0,0,1-.862-.328,16.721,16.721,0,0,1-1.006-1.643,1.439,1.439,0,0,1-.062-.842,8.74,8.74,0,0,1,.308-1.417.634.634,0,0,1,.39-.37c.534-.144,1.088-.246,1.643-.37Z" transform="translate(-1395.357 -435.6)" fill="#fdce2f"/>
    <path id="XMLID_58_" d="M1527.7,531.8c-.452.944-.9,1.868-1.355,2.813-.123.267-.308.267-.575.205-1.745-.328-2.443-1.642-2.833-3.141a2.011,2.011,0,0,1,.677-2.074c.739-.636,1.56-1.211,2.341-1.807a1.262,1.262,0,0,1,1.314-.041c.1.041.164.226.185.349.1.431.164.862.246,1.293Z" transform="translate(-1478.896 -508.707)" fill="#fdce2f"/>
    <path id="XMLID_57_" d="M1467.728,635.479a15.889,15.889,0,0,1-1.5-1.129,4.2,4.2,0,0,1-1.17-2.772c-.123-1.006-.267-2.033-.37-3.039a3.1,3.1,0,0,1,.123-.739,2.476,2.476,0,0,1,.657.349c.411.452.78.944,1.17,1.437.267.349.513.7.8,1.027a1.856,1.856,0,0,1,.513,1.478,1.438,1.438,0,0,0,.616,1.232,5.451,5.451,0,0,0,.924.6c.349.164.411.411.205.678a8.744,8.744,0,0,1-.862.883Z" transform="translate(-1432.661 -588.339)" fill="#fdce2f"/>
    <path id="XMLID_56_" d="M1308.7,482.584c.205-.842.39-1.7.636-2.546.185-.657.452-1.293.657-1.93.1-.287.267-.308.534-.185a.8.8,0,0,1,.534.78c0,.883.021,1.786-.021,2.669a1.118,1.118,0,0,1-.411.739,12.754,12.754,0,0,1-1.663.862c-.062.041-.164,0-.246,0A2.487,2.487,0,0,1,1308.7,482.584Z" transform="translate(-1308.7 -469.177)" fill="#fdce2f"/>
    <path id="XMLID_55_" d="M1472.37,582.427a1.307,1.307,0,0,1-1.273-.636c-.636-.78-1.314-1.54-1.971-2.32a1.7,1.7,0,0,1,.082-2.3c.246-.246.472-.493.7-.739.6-.678.7-.7,1.5-.349a2.784,2.784,0,0,0,1.909.164,3.19,3.19,0,0,0,2.238-2.546,2.967,2.967,0,0,0-1.663-3.039c-.534-.267-.616-.452-.554-1.027.062-.493.082-.985.164-1.478a1.536,1.536,0,0,1,1.663-1.458c1.068,0,2.156.1,3.223.144.1,0,.205.021.308.021a1.685,1.685,0,0,1,1.4.677c.842.986.842,1.068.082,2.115-1.663,2.3-3.305,4.6-5.01,6.878a9.15,9.15,0,0,0-1.909,5.277c-.021.6-.041.6-.636.6C1472.616,582.427,1472.534,582.427,1472.37,582.427Z" transform="translate(-1435.865 -539.784)" fill="#fdce2f"/>
    <path id="XMLID_54_" d="M1475.2,453.2c-1.068-.062-1.95-.123-2.854-.164a1.116,1.116,0,0,1-1.047-.821,2.894,2.894,0,0,0-2.115-1.971,4.443,4.443,0,0,0-1.17-.041,1.2,1.2,0,0,1-1.15-.6c-.7-1.047-1.4-2.053-2.115-3.08a1.263,1.263,0,0,1-.021-1.725.571.571,0,0,1,.472-.144,18.535,18.535,0,0,1,10.7,6.734.962.962,0,0,1,.082,1.211C1475.774,453.014,1475.486,453.24,1475.2,453.2Z" transform="translate(-1432.432 -442.79)" fill="#fdce2f"/>
    <path id="XMLID_53_" d="M1432.041,576.139c-.062.226-.1.39-.164.554a3.181,3.181,0,0,0,.144,2.525,1.008,1.008,0,0,1-.205,1.314c-.37.349-.719.719-1.088,1.088a.773.773,0,0,1-.308.185c-.246.1-.37.041-.411-.267a8.8,8.8,0,0,0-.267-1.5,4.4,4.4,0,0,0-2.443-2.69,32.78,32.78,0,0,0-5.831-2.053.493.493,0,0,1-.308-.842,1.331,1.331,0,0,1,.411-.349c.985-.534,1.971-1.088,2.977-1.6.472-.246.678-.205,1.068.185a2.864,2.864,0,0,0,3.511.719.767.767,0,0,1,1.109.267c.493.6.985,1.17,1.437,1.766A1.912,1.912,0,0,1,1432.041,576.139Z" transform="translate(-1397.959 -544.274)" fill="#fdce2f"/>
    <path id="XMLID_52_" d="M1368.343,556.4a2.562,2.562,0,0,1,2.012,1.252c.493.944,1.006,1.868,1.519,2.792a1.43,1.43,0,0,1,.082,1.458.5.5,0,0,1-.39.205c-2.875-.534-5.749-1.109-8.623-1.663a8.165,8.165,0,0,1-1.006-.308.313.313,0,0,1-.246-.452c.062-.246.123-.513.205-.76a1.053,1.053,0,0,1,.719-.719c1.745-.554,3.49-1.129,5.215-1.7C1367.994,556.462,1368.159,556.441,1368.343,556.4Z" transform="translate(-1350.789 -531.598)" fill="#fdce2f"/>
    <path id="XMLID_51_" d="M1464.661,533.61c-.554-.041-1.129-.082-1.683-.1a1.033,1.033,0,0,1-.965-.8,2.526,2.526,0,0,0-1.047-1.376c-.616-.493-.657-.616-.411-1.376.349-1.047.678-2.115,1.027-3.182a1.166,1.166,0,0,1,1.909-.76l1.478.8a.676.676,0,0,1,.39.739,1.984,1.984,0,0,0,1.027,2.115,1.187,1.187,0,0,1,.493.76,11.191,11.191,0,0,1-.144,2.2,1.111,1.111,0,0,1-1.232.965h-.862C1464.661,533.59,1464.661,533.59,1464.661,533.61Z" transform="translate(-1429.265 -507.248)" fill="#fdce2f"/>
    <path id="XMLID_50_" d="M1321.139,535.442c0,.39.021.76,0,1.15a1.252,1.252,0,0,1-.636,1.068,1.747,1.747,0,0,0-.513.513c-.164.287-.349.308-.616.144-1.006-.7-2.033-1.4-3.018-2.115-.7-.513-1.4-1.027-2.074-1.56a5.192,5.192,0,0,1-1.581-2.217.66.66,0,0,1-.021-.287.89.89,0,0,1,.328.021,4.044,4.044,0,0,0,3.018.164,5.329,5.329,0,0,0,1.293-.719,1.147,1.147,0,0,1,1.211-.185c.472.205.924.431,1.375.657a.906.906,0,0,1,.534.842.59.59,0,0,0,.185.411,1.37,1.37,0,0,1,.554,1.314c-.021.267,0,.534,0,.78C1321.16,535.442,1321.16,535.442,1321.139,535.442Z" transform="translate(-1311.859 -511.667)" fill="#fdce2f"/>
    <path id="XMLID_49_" d="M1412.811,537.46c-.739-.164-1.478-.308-2.217-.472-1.068-.226-2.156-.452-3.223-.7-.39-.082-.842-.185-.945-.6s.226-.7.513-.944c1.109-.924,2.217-1.848,3.306-2.792a.858.858,0,0,1,.883-.164c.452.144.924.185,1.376.349a1.283,1.283,0,0,1,.616.472c.452.842.842,1.7,1.252,2.587a1.006,1.006,0,0,1-.205,1.252,1.286,1.286,0,0,0-.205.328A1.288,1.288,0,0,1,1412.811,537.46Z" transform="translate(-1386.346 -512.002)" fill="#fdce2f"/>
    <path id="XMLID_48_" d="M1434.983,486.8v-1.027a.578.578,0,0,1,.513-.636,4.116,4.116,0,0,0,3.141-2.69.715.715,0,0,1,.821-.472c.7.082,1.4.185,2.094.287a.667.667,0,0,1,.37.205,1.76,1.76,0,0,1-.123,2.135c-1.478,1.211-2.957,2.4-4.435,3.593-.164.123-.329.246-.493.39a.96.96,0,0,1-1.191.185,1.007,1.007,0,0,1-.7-1.088,4.217,4.217,0,0,0,0-.883Z" transform="translate(-1409.052 -472.447)" fill="#fdce2f"/>
    <path id="XMLID_47_" d="M1498.035,545.133c-.821-.041-1.622-.062-2.443-.1a1.305,1.305,0,0,1-1.376-1.211,11.2,11.2,0,0,1,0-2.033c.021-.411.349-.636.7-.821a3.551,3.551,0,0,0,.842-.616c.226-.205.411-.411.739-.37a2.861,2.861,0,0,1,1.7.6c.493.452,1.006.883,1.478,1.355a4.849,4.849,0,0,1,1.047,2.135c.185.616-.411,1.129-1.15,1.088-.267-.021-.513-.041-.78-.041h-.78A.02.02,0,0,1,1498.035,545.133Z" transform="translate(-1456.09 -518.545)" fill="#fdce2f"/>
    <path id="XMLID_46_" d="M1412.081,557.359a.872.872,0,0,1-.534.944c-1.027.575-2.053,1.15-3.1,1.684a1.373,1.373,0,0,1-1.766-.513c-.616-1.191-1.232-2.4-1.786-3.634-.287-.636.041-1.047.7-.924,1.868.39,3.737.78,5.6,1.191C1411.958,556.312,1412.04,556.455,1412.081,557.359Z" transform="translate(-1385.062 -530.401)" fill="#fdce2f"/>
    <path id="XMLID_45_" d="M1451.3,456.214c-.8-.1-1.478-.185-2.135-.287a.762.762,0,0,1-.636-.657,4.769,4.769,0,0,0-1.191-2.484.664.664,0,0,1-.041-.9c.349-.472.677-.965,1.027-1.437a1.18,1.18,0,0,1,2.156.082c.719,1.129,1.417,2.258,2.115,3.408.287.472.411.821-.062,1.314-.205.205-.349.493-.575.678A2.776,2.776,0,0,1,1451.3,456.214Z" transform="translate(-1418.714 -446.873)" fill="#fdce2f"/>
    <path id="XMLID_44_" d="M1356.2,542.853V542.3a.929.929,0,0,1,1.314-.944c1.745.534,3.511,1.068,5.256,1.6a2.51,2.51,0,0,1,.554.185,3.826,3.826,0,0,1,.534.472c-.185.185-.329.472-.554.534-.842.287-1.7.534-2.546.78-.9.267-1.827.493-2.71.8a1.33,1.33,0,0,1-1.725-1.252C1356.282,543.961,1356.241,543.448,1356.2,542.853Z" transform="translate(-1346.448 -519.591)" fill="#fdce2f"/>
    <path id="XMLID_43_" d="M1489.856,497.7a2.921,2.921,0,0,1,.472.267c1.068.9,2.135,1.827,3.182,2.751.7.6.678,1.088-.021,1.643-.534.431-1.109.842-1.663,1.273a1.481,1.481,0,0,1-2.135-.308,2.282,2.282,0,0,1-.39-.883c-.226-1.15-.411-2.3-.636-3.429C1488.481,498.172,1489.056,497.864,1489.856,497.7Z" transform="translate(-1451.689 -484.95)" fill="#fdce2f"/>
    <path id="XMLID_42_" d="M1342.071,499.377c-.021.205-.041.513-.082.821a.414.414,0,0,1-.534.39,2.489,2.489,0,0,1-.657-.226c-.39-.226-.76-.513-1.15-.76a.712.712,0,0,1-.308-.924,4.189,4.189,0,0,0-.39-3.593.929.929,0,0,1,.041-1.047c.493-.636.986-1.252,1.54-1.848a.947.947,0,0,1,.719-.226.781.781,0,0,1,.575.76q.092,2.833.185,5.667C1342.03,498.7,1342.051,498.987,1342.071,499.377Z" transform="translate(-1332.627 -480.385)" fill="#fdce2f"/>
    <path id="XMLID_41_" d="M1327.848,477.65a4.628,4.628,0,0,1-.513.842c-.493.554-1.027,1.047-1.54,1.581a.689.689,0,0,1-.8.164c-.513-.185-1.006-.37-1.5-.534a.615.615,0,0,1-.493-.616c-.041-.842-.082-1.684-.123-2.5a1.269,1.269,0,0,1,.513-1.129c.144-.123.287-.226.411-.349a.756.756,0,0,1,.862-.164c.719.267,1.437.513,2.115.821a1.442,1.442,0,0,1,.636.575A7.035,7.035,0,0,1,1327.848,477.65Z" transform="translate(-1319.964 -466.809)" fill="#fdce2f"/>
    <path id="XMLID_40_" d="M1407.314,514.313a2.32,2.32,0,0,1-.842,1.909c-.965.821-1.93,1.663-2.895,2.484a.494.494,0,0,1-.164.123c-.185.062-.39.1-.575.164a1.6,1.6,0,0,1-.082-.616c.39-1.889.8-3.757,1.211-5.646.205-.944.7-1.15,1.54-.678a7.28,7.28,0,0,0,.677.39A1.871,1.871,0,0,1,1407.314,514.313Z" transform="translate(-1383.437 -496.163)" fill="#fdce2f"/>
    <path id="XMLID_39_" d="M1443.144,528.15a1.036,1.036,0,0,1-1.191-.719c-.328-.719-.739-1.417-1.129-2.115-.226-.411-.328-.8.062-1.17a.894.894,0,0,0,.164-.308,1.2,1.2,0,0,1,1.129-.883c.8-.082,1.622-.123,2.423-.164a.869.869,0,0,1,.944,1.273c-.431,1.211-.883,2.4-1.335,3.613C1444.006,528.191,1443.534,528.109,1443.144,528.15Z" transform="translate(-1413.538 -504.888)" fill="#fdce2f"/>
    <path id="XMLID_38_" d="M1400.053,475.949v.164a4.48,4.48,0,0,1-1.622,2.156c-.308.226-.6-.041-.76-.349-.246-.431-.452-.842-.678-1.293-.513-1.027-1.006-2.074-1.519-3.1a1.048,1.048,0,0,1,.041-1.252,1.01,1.01,0,0,1,1.211-.287c.636.205,1.293.37,1.909.6a.772.772,0,0,1,.493.452c.328.883.6,1.786.9,2.669A.645.645,0,0,0,1400.053,475.949Z" transform="translate(-1377.51 -464.452)" fill="#fdce2f"/>
    <path id="XMLID_37_" d="M1498.429,487.7c.554.021,1.109.062,1.642.1a2.083,2.083,0,0,1,1.807,1.766,2.007,2.007,0,0,1,0,.924c-.164.657-.37,1.314-.6,1.95a.625.625,0,0,1-1.088.308c-1.17-1.027-2.341-2.053-3.49-3.121a1,1,0,0,1-.123-1.109,1.085,1.085,0,0,1,.9-.76,6.629,6.629,0,0,1,.9,0C1498.429,487.721,1498.429,487.7,1498.429,487.7Z" transform="translate(-1457.921 -477.003)" fill="#fdce2f"/>
    <path id="XMLID_36_" d="M1355.9,498.441v-.452c.021-2.361.062-4.722.082-7.083a.872.872,0,0,1,.554-.9c.082-.041.164-.1.246-.144.287-.144.6-.452.842-.39a2.056,2.056,0,0,1,1.417.9,1.887,1.887,0,0,1,.144,1.971c-.986,1.95-1.951,3.9-2.916,5.872a2.747,2.747,0,0,1-.226.287C1356,498.482,1355.941,498.461,1355.9,498.441Z" transform="translate(-1346.209 -478.402)" fill="#fdce2f"/>
    <path id="XMLID_35_" d="M1449.7,496.873a2.62,2.62,0,0,1-.123.37c-.287.7-.575,1.4-.842,2.115a3.016,3.016,0,0,1-2.525,1.848c-.76.144-1.54.164-2.3.246a.889.889,0,0,1-.842-.452c-.123-.39.1-.616.37-.821,1.273-.986,2.566-1.95,3.839-2.936a15.978,15.978,0,0,1,1.335-.986.8.8,0,0,1,.677-.062c.226.123.328.411.493.616A.11.11,0,0,0,1449.7,496.873Z" transform="translate(-1415.452 -483.713)" fill="#fdce2f"/>
    <path id="XMLID_34_" d="M1399.47,449a1.215,1.215,0,0,1,1.17.739c.205.452.452.883.7,1.314a.928.928,0,0,1-.062,1.068c-.308.431-.616.842-.9,1.293a.785.785,0,0,1-.862.39c-.78-.123-1.56-.246-2.32-.411a1.012,1.012,0,0,1-.657-1.684c.513-.719,1.068-1.417,1.622-2.115A1.572,1.572,0,0,1,1399.47,449Z" transform="translate(-1378.303 -446.249)" fill="#fdce2f"/>
    <path id="XMLID_33_" d="M1468.585,565.5c.411.041,1.109.082,1.807.144a1.225,1.225,0,0,1,.9,1.417,16.2,16.2,0,0,1-.226,1.745.865.865,0,0,1-.431.534,9.445,9.445,0,0,1-1.355.411,1.16,1.16,0,0,1-1.129-.287c-.513-.513-1.027-1.047-1.56-1.56a.846.846,0,0,1-.226-.862C1466.655,565.89,1467.148,565.5,1468.585,565.5Z" transform="translate(-1433.969 -538.83)" fill="#fdce2f"/>
    <path id="XMLID_32_" d="M1351.3,456.324c0-.78.349-1.006.965-.739,1.006.452,1.991.924,2.977,1.4.575.267,1.15.554,1.725.842a1.773,1.773,0,0,1,.328.205c.349.349.308.657-.164.842-.965.37-1.93.719-2.936,1.006-.267.082-.616-.1-.9-.205-.246-.082-.472-.267-.739-.349a.931.931,0,0,1-.7-.616C1351.649,457.843,1351.464,456.981,1351.3,456.324Z" transform="translate(-1342.554 -451.397)" fill="#fdce2f"/>
    <path id="XMLID_31_" d="M1471.5,503.675a4.259,4.259,0,0,1,.144-.534c.349-.78.678-1.56,1.047-2.32a1.079,1.079,0,0,1,1.519-.431.636.636,0,0,1,.267.411c.328,1.437.636,2.895.944,4.332a.858.858,0,0,1-.39.883.772.772,0,0,1-.924.082c-.616-.328-1.232-.678-1.868-1.006A1.533,1.533,0,0,1,1471.5,503.675Z" transform="translate(-1438.075 -486.963)" fill="#fdce2f"/>
    <path id="XMLID_30_" d="M1358.762,444.18a1.283,1.283,0,0,1,.287.082,3.257,3.257,0,0,1,1.376,1.458c.185.513.37,1.027.554,1.56.021.082.082.164.062.226-.041.267-.021.657-.185.8a.972.972,0,0,1-.8.041c-1.252-.513-2.484-1.068-3.716-1.6-.308-.144-.636-.267-.924-.431a1.647,1.647,0,0,1-.534-.452.652.652,0,0,1,.041-.472c.021-.082.144-.144.246-.185,1.129-.349,2.258-.678,3.388-1.006C1358.6,444.16,1358.639,444.18,1358.762,444.18Z" transform="translate(-1345.376 -442.414)" fill="#fdce2f"/>
    <path id="XMLID_29_" d="M1385.818,483.149c-.452-.164-.8-.308-1.15-.452-1.047-.431-2.115-.842-3.162-1.293a1.194,1.194,0,0,1-.719-1.827l.739-1.6a.941.941,0,0,1,.944-.575.89.89,0,0,1,.862.554c.76,1.54,1.56,3.059,2.32,4.578A3.288,3.288,0,0,1,1385.818,483.149Z" transform="translate(-1365.841 -468.818)" fill="#fdce2f"/>
    <path id="XMLID_28_" d="M1330.85,454.8a1.187,1.187,0,0,1,1.006.862c.144.862.267,1.725.37,2.607a1.135,1.135,0,0,1-1.355,1.068c-.821-.226-1.643-.493-2.464-.76-.636-.205-.862-.8-1.15-1.314-.041-.062.041-.246.1-.287,1.109-.719,2.238-1.417,3.347-2.115C1330.748,454.82,1330.83,454.82,1330.85,454.8Z" transform="translate(-1323.439 -450.858)" fill="#fdce2f"/>
    <path id="XMLID_27_" d="M1367.49,533.035c.021.39-.287.575-.678.472-.411-.1-.821-.246-1.232-.39-1.54-.493-3.08-.986-4.64-1.478a1.092,1.092,0,0,1-.349-.164.285.285,0,0,1-.041-.513,2.942,2.942,0,0,1,.308-.226c.78-.37,1.56-.76,2.341-1.109a.811.811,0,0,1,.616.041,18.882,18.882,0,0,1,1.766.739,2.073,2.073,0,0,1,.76.636,16.566,16.566,0,0,1,.985,1.643A.867.867,0,0,1,1367.49,533.035Z" transform="translate(-1349.792 -510.286)" fill="#fdce2f"/>
    <path id="XMLID_26_" d="M1383.5,442.14a3.944,3.944,0,0,1,.062-.452c.164-.7.287-.821,1.006-.9.9-.082,1.827-.144,2.751-.185a.481.481,0,0,1,.37.226,1.65,1.65,0,0,1-.226,2.053c-.554.575-1.026,1.232-1.56,1.827a.933.933,0,0,1-1.725-.308c-.226-.6-.411-1.191-.6-1.786A1.081,1.081,0,0,1,1383.5,442.14Z" transform="translate(-1368.143 -439.573)" fill="#fdce2f"/>
    <path id="XMLID_25_" d="M1522.2,500.21a1.756,1.756,0,0,1,.062-.349c.185-.616.37-1.232.554-1.827a1.183,1.183,0,0,1,1.458-.636.654.654,0,0,1,.267.308c.554,1.088,1.088,2.176,1.622,3.264a.839.839,0,0,1-.021.924.8.8,0,0,1-.924.267c-.719-.205-1.437-.37-2.156-.6A1.247,1.247,0,0,1,1522.2,500.21Z" transform="translate(-1478.366 -484.647)" fill="#fdce2f"/>
    <path id="XMLID_24_" d="M1413,496.981a4,4,0,0,1,.39-.842,11.845,11.845,0,0,1,1.088-1.191.81.81,0,0,1,.944-.164,7.6,7.6,0,0,1,1.109.493.828.828,0,0,1,.39.554,12.938,12.938,0,0,1,.164,2.176,1.22,1.22,0,0,1-1.622,1.047,11.141,11.141,0,0,1-2.012-1.211C1413.205,497.659,1413.144,497.289,1413,496.981Z" transform="translate(-1391.586 -482.568)" fill="#fdce2f"/>
    <path id="XMLID_23_" d="M1391,516.06a3.592,3.592,0,0,1,.226-.493,2.545,2.545,0,0,0,.513-1.663,1.06,1.06,0,0,1,.431-.924c.493-.37.986-.739,1.5-1.088a.6.6,0,0,1,.554-.062c.082.041.123.349.082.513-.39,1.93-.8,3.839-1.211,5.749-.021.041,0,.123-.041.144-.123.185-.246.472-.411.513-.164.021-.411-.205-.513-.37-.349-.616-.677-1.232-.985-1.868A1.3,1.3,0,0,1,1391,516.06Z" transform="translate(-1374.103 -496.145)" fill="#fdce2f"/>
    <path id="XMLID_22_" d="M1358.1,507.873c.1-.246.144-.431.226-.6,1.006-1.992,1.992-3.983,3-5.954.062-.1.123-.205.185-.287.246-.287.493-.267.6.1.185.636.328,1.293.472,1.95a.844.844,0,0,1-.246.862,2.436,2.436,0,0,0-.78,1.868.642.642,0,0,1-.39.616c-.924.452-1.827.9-2.751,1.355A2.587,2.587,0,0,1,1358.1,507.873Z" transform="translate(-1347.957 -487.445)" fill="#fdce2f"/>
    <path id="XMLID_21_" d="M1382.373,502.042a4.274,4.274,0,0,1-1.991-.78,5.44,5.44,0,0,1-.657-2.525.474.474,0,0,1,.657-.308c.842.308,1.663.616,2.5.924.493.185.985.37,1.458.6.452.205.575.575.205.842a21.737,21.737,0,0,1-1.992,1.252A.5.5,0,0,0,1382.373,502.042Z" transform="translate(-1365.127 -485.494)" fill="#fdce2f"/>
    <path id="XMLID_20_" d="M1367.939,474.365c.472,0,.739.267.575.7a5.026,5.026,0,0,1-1.909,2.915.58.58,0,0,1-.452.021,7.494,7.494,0,0,1-1.109-.657,1.129,1.129,0,0,1,.041-1.971,25.219,25.219,0,0,1,2.71-1.006C1367.837,474.344,1367.9,474.365,1367.939,474.365Z" transform="translate(-1353.034 -466.399)" fill="#fdce2f"/>
    <path id="XMLID_19_" d="M1519.829,521.985c0-.349-.021-.719,0-1.068a1.138,1.138,0,0,1,1.417-.944,20.973,20.973,0,0,1,2.2.7c.37.123.411.246.1.513-.616.534-1.252,1.026-1.909,1.519q-.554.431-1.109.8c-.411.267-.657.164-.7-.328a11.933,11.933,0,0,1,0-1.211Z" transform="translate(-1476.467 -502.624)" fill="#fdce2f"/>
    <path id="XMLID_18_" d="M1506.083,523.464a9.066,9.066,0,0,1-.062,1.006.864.864,0,0,1-1.026.76,6.323,6.323,0,0,1-1.4-.349,1.085,1.085,0,0,1-.226-1.909c.513-.39,1.047-.78,1.6-1.15.616-.411.944-.267,1.026.452C1506.042,522.642,1506.042,523.032,1506.083,523.464Z" transform="translate(-1463.03 -503.938)" fill="#fdce2f"/>
  </g>
  <line id="XMLID_16_" y2="47.858" transform="translate(55.83)" fill="#fed22c"/>
</svg>
