<svg xmlns="http://www.w3.org/2000/svg" width="466.779" height="181.198" viewBox="0 0 466.779 181.198">
  <g id="Group_64" data-name="Group 64" transform="translate(8523 4848.17)">
    <g id="XMLID_15_" transform="translate(-9831.7 -5279.978)">
      <g id="XMLID_17_" transform="translate(1308.7 434.816)">
        <path id="XMLID_59_" d="M1434.706,435.6c2.406.621,4.734,1.242,7.14,1.785a2.4,2.4,0,0,1,2.018,2.251.466.466,0,0,0,.078.31c2.872,6.131-1.087,10.012-4.812,13.814a3.793,3.793,0,0,1-2.871.776,19.992,19.992,0,0,0-11.1-.155,2.716,2.716,0,0,1-3.26-1.242,63.229,63.229,0,0,1-3.8-6.209,5.441,5.441,0,0,1-.233-3.182,33.067,33.067,0,0,1,1.164-5.355,2.4,2.4,0,0,1,1.475-1.4c2.018-.543,4.113-.931,6.209-1.4Z" transform="translate(-1333.117 -435.6)" fill="#fdce2f"/>
        <path id="XMLID_58_" d="M1541.131,543.508c-1.707,3.57-3.415,7.062-5.122,10.632-.466,1.009-1.164,1.009-2.173.776-6.6-1.242-9.235-6.209-10.71-11.874a7.6,7.6,0,0,1,2.561-7.838c2.794-2.406,5.9-4.579,8.847-6.83,1.63-1.242,3.337-.776,4.967-.155.388.155.621.854.7,1.319.388,1.63.621,3.26.931,4.889Z" transform="translate(-1356.655 -456.199)" fill="#fdce2f"/>
        <path id="XMLID_57_" d="M1476.183,656.826a60.124,60.124,0,0,1-5.666-4.268c-3.027-2.794-3.958-6.519-4.424-10.477-.466-3.8-1.009-7.683-1.4-11.486a11.693,11.693,0,0,1,.466-2.794,9.348,9.348,0,0,1,2.483,1.319c1.552,1.707,2.949,3.57,4.424,5.433,1.009,1.319,1.94,2.639,3.027,3.88a7.016,7.016,0,0,1,1.94,5.588,5.435,5.435,0,0,0,2.328,4.656,20.617,20.617,0,0,0,3.492,2.251c1.319.621,1.552,1.552.776,2.561a33.082,33.082,0,0,1-3.26,3.337Z" transform="translate(-1343.628 -478.637)" fill="#fdce2f"/>
        <path id="XMLID_56_" d="M1308.7,495.739c.776-3.182,1.474-6.441,2.406-9.623.7-2.483,1.707-4.889,2.484-7.3.388-1.087,1.009-1.164,2.018-.7a3,3,0,0,1,2.018,2.949c0,3.337.078,6.752-.078,10.089a4.225,4.225,0,0,1-1.552,2.794,48.224,48.224,0,0,1-6.286,3.26c-.233.155-.621,0-.931,0A9.4,9.4,0,0,1,1308.7,495.739Z" transform="translate(-1308.7 -445.061)" fill="#fdce2f"/>
        <path id="XMLID_55_" d="M1482.519,626.148c-1.94.388-3.415-.7-4.812-2.406-2.406-2.949-4.967-5.821-7.45-8.77a6.443,6.443,0,0,1,.31-8.692c.931-.931,1.785-1.863,2.639-2.794,2.251-2.561,2.639-2.639,5.665-1.319a10.525,10.525,0,0,0,7.218.621c4.268-1.164,8.071-5.433,8.459-9.623a11.216,11.216,0,0,0-6.286-11.486c-2.018-1.009-2.328-1.707-2.1-3.88.233-1.863.31-3.725.621-5.588.621-3.648,2.639-5.51,6.286-5.51,4.036,0,8.149.388,12.184.543.388,0,.776.078,1.164.078a6.367,6.367,0,0,1,5.277,2.561c3.182,3.725,3.182,4.036.31,7.994-6.286,8.692-12.495,17.384-18.936,26a34.591,34.591,0,0,0-7.218,19.945c-.078,2.251-.155,2.251-2.406,2.251C1483.45,626.148,1483.14,626.148,1482.519,626.148Z" transform="translate(-1344.531 -464.955)" fill="#fdce2f"/>
        <path id="XMLID_54_" d="M1505.222,476.973c-4.036-.233-7.373-.466-10.787-.621-2.1-.078-3.182-1.242-3.958-3.1-1.474-3.725-3.88-6.6-7.994-7.45a16.8,16.8,0,0,0-4.424-.155,4.541,4.541,0,0,1-4.346-2.251c-2.639-3.958-5.277-7.761-7.994-11.641-1.707-2.483-1.785-4.734-.078-6.519a2.16,2.16,0,0,1,1.785-.543,70.065,70.065,0,0,1,40.434,25.456,3.638,3.638,0,0,1,.31,4.579C1507.395,476.275,1506.308,477.129,1505.222,476.973Z" transform="translate(-1343.563 -437.626)" fill="#fdce2f"/>
        <path id="XMLID_53_" d="M1462.68,586.669c-.233.854-.388,1.475-.621,2.1a12.024,12.024,0,0,0,.543,9.546c.931,1.94.776,3.492-.776,4.967-1.4,1.319-2.716,2.716-4.113,4.113a2.922,2.922,0,0,1-1.164.7c-.931.388-1.4.155-1.552-1.009a33.211,33.211,0,0,0-1.009-5.665c-1.475-4.812-4.812-7.994-9.235-10.167-7.062-3.492-14.513-5.665-22.041-7.761-1.707-.466-2.173-1.707-1.164-3.182a5.03,5.03,0,0,1,1.552-1.319c3.725-2.018,7.45-4.113,11.253-6.053,1.785-.931,2.561-.776,4.036.7,3.958,4.036,7.994,4.889,13.271,2.716,1.94-.854,2.871-.621,4.191,1.009,1.863,2.251,3.725,4.424,5.432,6.674A7.223,7.223,0,0,1,1462.68,586.669Z" transform="translate(-1333.85 -466.221)" fill="#fdce2f"/>
        <path id="XMLID_52_" d="M1386.915,556.4c3.182.621,5.976,1.63,7.605,4.734,1.863,3.57,3.8,7.062,5.743,10.555a5.407,5.407,0,0,1,.31,5.51,1.875,1.875,0,0,1-1.474.776c-10.865-2.018-21.73-4.191-32.6-6.286a30.836,30.836,0,0,1-3.8-1.164,1.184,1.184,0,0,1-.931-1.707c.233-.931.466-1.94.776-2.872a3.98,3.98,0,0,1,2.716-2.716c6.6-2.1,13.193-4.268,19.713-6.442C1385.6,556.633,1386.216,556.555,1386.915,556.4Z" transform="translate(-1320.559 -462.649)" fill="#fdce2f"/>
        <path id="XMLID_51_" d="M1476.468,555.437c-2.1-.155-4.268-.31-6.364-.388a3.9,3.9,0,0,1-3.648-3.027,9.547,9.547,0,0,0-3.958-5.2c-2.328-1.863-2.483-2.328-1.552-5.2,1.319-3.958,2.561-7.994,3.88-12.029,1.242-3.8,3.648-4.812,7.218-2.872l5.588,3.027a2.557,2.557,0,0,1,1.475,2.794,7.5,7.5,0,0,0,3.88,7.994,4.487,4.487,0,0,1,1.863,2.872,42.3,42.3,0,0,1-.543,8.3c-.388,2.483-2.173,3.648-4.656,3.648h-3.26C1476.468,555.36,1476.468,555.36,1476.468,555.437Z" transform="translate(-1342.671 -455.788)" fill="#fdce2f"/>
        <path id="XMLID_50_" d="M1344.669,546.9c0,1.475.078,2.872,0,4.346a4.733,4.733,0,0,1-2.406,4.036,6.6,6.6,0,0,0-1.94,1.94c-.621,1.087-1.319,1.164-2.328.543-3.8-2.639-7.683-5.277-11.408-7.994-2.639-1.94-5.277-3.88-7.839-5.9a19.629,19.629,0,0,1-5.976-8.382,2.491,2.491,0,0,1-.078-1.087,3.36,3.36,0,0,1,1.242.078c3.725,1.475,7.528,2.1,11.408.621a20.145,20.145,0,0,0,4.889-2.716,4.334,4.334,0,0,1,4.579-.7c1.785.776,3.492,1.63,5.2,2.483a3.425,3.425,0,0,1,2.018,3.182,2.232,2.232,0,0,0,.7,1.552c1.785,1.242,2.173,2.949,2.1,4.967-.078,1.009,0,2.018,0,2.949C1344.747,546.9,1344.747,546.9,1344.669,546.9Z" transform="translate(-1309.59 -457.033)" fill="#fdce2f"/>
        <path id="XMLID_49_" d="M1430.615,553.362c-2.794-.621-5.588-1.164-8.382-1.785-4.036-.854-8.149-1.707-12.184-2.639-1.475-.31-3.182-.7-3.57-2.251s.854-2.639,1.94-3.57c4.191-3.492,8.382-6.985,12.495-10.555a3.245,3.245,0,0,1,3.337-.621c1.708.543,3.492.7,5.2,1.319a4.851,4.851,0,0,1,2.328,1.785c1.707,3.182,3.182,6.441,4.734,9.779a3.8,3.8,0,0,1-.776,4.734,4.852,4.852,0,0,0-.776,1.242A4.871,4.871,0,0,1,1430.615,553.362Z" transform="translate(-1330.578 -457.127)" fill="#fdce2f"/>
        <path id="XMLID_48_" d="M1435,500.231v-3.88a2.184,2.184,0,0,1,1.94-2.406,15.56,15.56,0,0,0,11.874-10.167,2.7,2.7,0,0,1,3.1-1.785c2.639.31,5.277.7,7.916,1.087a2.52,2.52,0,0,1,1.4.776c1.707,1.785,1.475,6.441-.466,8.071-5.588,4.579-11.176,9.08-16.763,13.581-.621.466-1.242.931-1.863,1.475a3.629,3.629,0,0,1-4.5.7c-1.863-.854-2.794-2.018-2.639-4.113a15.978,15.978,0,0,0,0-3.337Z" transform="translate(-1336.976 -445.982)" fill="#fdce2f"/>
        <path id="XMLID_47_" d="M1508.783,559.474c-3.1-.155-6.131-.233-9.235-.388-2.949-.155-4.812-1.63-5.2-4.579a42.352,42.352,0,0,1,0-7.683c.078-1.552,1.319-2.406,2.639-3.1a13.426,13.426,0,0,0,3.182-2.328c.854-.776,1.552-1.552,2.794-1.4,2.251.31,4.656.543,6.442,2.251,1.863,1.707,3.8,3.337,5.588,5.122,2.173,2.173,3.1,5.2,3.958,8.071.7,2.328-1.552,4.268-4.346,4.113-1.009-.078-1.94-.155-2.949-.155h-2.949A.076.076,0,0,1,1508.783,559.474Z" transform="translate(-1350.229 -458.971)" fill="#fdce2f"/>
        <path id="XMLID_46_" d="M1432.349,564.212a3.3,3.3,0,0,1-2.018,3.57c-3.88,2.173-7.761,4.346-11.719,6.364a5.19,5.19,0,0,1-6.674-1.94c-2.328-4.5-4.656-9.08-6.752-13.737-1.087-2.406.155-3.958,2.639-3.492,7.062,1.475,14.125,2.949,21.187,4.5C1431.883,560.254,1432.194,560.8,1432.349,564.212Z" transform="translate(-1330.216 -462.312)" fill="#fdce2f"/>
        <path id="XMLID_45_" d="M1462.863,474.088c-3.027-.388-5.588-.7-8.071-1.087a2.882,2.882,0,0,1-2.406-2.483,18.03,18.03,0,0,0-4.5-9.391,2.511,2.511,0,0,1-.155-3.415c1.319-1.785,2.561-3.648,3.88-5.433,2.483-3.415,5.9-3.337,8.149.31,2.716,4.268,5.355,8.537,7.994,12.883,1.086,1.785,1.552,3.1-.233,4.967-.776.776-1.319,1.863-2.173,2.561A10.488,10.488,0,0,1,1462.863,474.088Z" transform="translate(-1339.698 -438.776)" fill="#fdce2f"/>
        <path id="XMLID_44_" d="M1356.2,547.2v-2.1c.078-2.949,2.018-4.424,4.967-3.57,6.6,2.018,13.271,4.036,19.868,6.053a9.5,9.5,0,0,1,2.1.7,14.456,14.456,0,0,1,2.018,1.785c-.7.7-1.242,1.785-2.1,2.018-3.182,1.087-6.442,2.018-9.623,2.949-3.415,1.009-6.907,1.863-10.244,3.027a5.027,5.027,0,0,1-6.519-4.734C1356.51,551.387,1356.355,549.447,1356.2,547.2Z" transform="translate(-1319.336 -459.266)" fill="#fdce2f"/>
        <path id="XMLID_43_" d="M1493.263,497.7a11.026,11.026,0,0,1,1.785,1.009c4.036,3.415,8.071,6.907,12.029,10.4,2.639,2.251,2.561,4.113-.078,6.209-2.018,1.63-4.191,3.182-6.286,4.812a5.6,5.6,0,0,1-8.071-1.164,8.627,8.627,0,0,1-1.475-3.337c-.854-4.346-1.552-8.692-2.406-12.961C1488.064,499.485,1490.237,498.321,1493.263,497.7Z" transform="translate(-1348.989 -449.505)" fill="#fdce2f"/>
        <path id="XMLID_42_" d="M1351.142,520.007c-.078.776-.155,1.94-.31,3.1a1.565,1.565,0,0,1-2.018,1.475,9.414,9.414,0,0,1-2.483-.854c-1.475-.854-2.871-1.94-4.346-2.872a2.693,2.693,0,0,1-1.164-3.492,15.833,15.833,0,0,0-1.475-13.581,3.511,3.511,0,0,1,.155-3.958c1.863-2.406,3.725-4.734,5.821-6.985a3.581,3.581,0,0,1,2.716-.854,2.952,2.952,0,0,1,2.173,2.872q.349,10.71.7,21.42C1350.986,517.446,1351.064,518.532,1351.142,520.007Z" transform="translate(-1315.442 -448.219)" fill="#fdce2f"/>
        <path id="XMLID_41_" d="M1341.676,485.371a17.5,17.5,0,0,1-1.94,3.182c-1.863,2.1-3.88,3.958-5.821,5.976a2.6,2.6,0,0,1-3.027.621c-1.94-.7-3.8-1.4-5.666-2.018a2.325,2.325,0,0,1-1.863-2.328c-.155-3.182-.31-6.364-.466-9.468a4.8,4.8,0,0,1,1.94-4.268c.543-.466,1.086-.854,1.552-1.319a2.857,2.857,0,0,1,3.26-.621c2.716,1.009,5.433,1.94,7.994,3.1a5.45,5.45,0,0,1,2.406,2.173C1340.822,481.723,1341.055,483.431,1341.676,485.371Z" transform="translate(-1311.874 -444.394)" fill="#fdce2f"/>
        <path id="XMLID_40_" d="M1420.017,521.27a8.771,8.771,0,0,1-3.182,7.218c-3.648,3.1-7.3,6.286-10.943,9.391a1.865,1.865,0,0,1-.621.466c-.7.233-1.475.388-2.173.621a6.036,6.036,0,0,1-.311-2.328c1.475-7.14,3.027-14.2,4.579-21.342.776-3.57,2.639-4.346,5.821-2.561a27.522,27.522,0,0,0,2.561,1.475A7.075,7.075,0,0,1,1420.017,521.27Z" transform="translate(-1329.758 -452.665)" fill="#fdce2f"/>
        <path id="XMLID_39_" d="M1450.151,543.053a3.915,3.915,0,0,1-4.5-2.716c-1.242-2.716-2.794-5.355-4.268-7.994-.854-1.552-1.242-3.027.233-4.424a3.378,3.378,0,0,0,.621-1.164,4.544,4.544,0,0,1,4.268-3.337c3.027-.31,6.131-.466,9.158-.621,3.1-.155,4.656,1.94,3.57,4.812-1.63,4.579-3.337,9.08-5.045,13.659C1453.411,543.209,1451.626,542.9,1450.151,543.053Z" transform="translate(-1338.24 -455.123)" fill="#fdce2f"/>
        <path id="XMLID_38_" d="M1413.3,487.19v.621a16.934,16.934,0,0,1-6.131,8.149c-1.164.854-2.251-.155-2.871-1.319-.931-1.63-1.708-3.182-2.561-4.889-1.94-3.88-3.8-7.838-5.743-11.719-.854-1.63-1.087-3.182.155-4.734s2.794-1.63,4.579-1.087c2.406.776,4.889,1.4,7.218,2.251a2.916,2.916,0,0,1,1.863,1.707c1.242,3.337,2.251,6.752,3.415,10.089A2.433,2.433,0,0,0,1413.3,487.19Z" transform="translate(-1328.088 -443.729)" fill="#fdce2f"/>
        <path id="XMLID_37_" d="M1503.867,487.7c2.1.078,4.191.233,6.209.388,3.26.233,6.054,2.872,6.83,6.674a7.583,7.583,0,0,1,0,3.492c-.621,2.483-1.4,4.967-2.251,7.373-.776,2.1-2.406,2.561-4.113,1.164-4.424-3.88-8.847-7.761-13.193-11.8-1.242-1.164-.931-2.794-.466-4.191a4.1,4.1,0,0,1,3.415-2.872,25.065,25.065,0,0,1,3.415,0C1503.867,487.778,1503.867,487.7,1503.867,487.7Z" transform="translate(-1350.745 -447.266)" fill="#fdce2f"/>
        <path id="XMLID_36_" d="M1355.9,523.406V521.7c.078-8.925.233-17.85.31-26.775a3.3,3.3,0,0,1,2.1-3.415c.311-.155.621-.388.931-.543,1.087-.543,2.251-1.707,3.182-1.475a7.77,7.77,0,0,1,5.355,3.415c1.4,2.328,1.94,4.734.543,7.45-3.725,7.373-7.373,14.746-11.02,22.2a10.439,10.439,0,0,1-.854,1.087C1356.288,523.561,1356.055,523.484,1355.9,523.406Z" transform="translate(-1319.269 -447.66)" fill="#fdce2f"/>
        <path id="XMLID_35_" d="M1468.23,498.9a9.84,9.84,0,0,1-.466,1.4c-1.087,2.639-2.173,5.277-3.182,7.994-1.707,4.424-5.355,6.209-9.546,6.985-2.871.543-5.821.621-8.692.931a3.361,3.361,0,0,1-3.182-1.707c-.466-1.475.388-2.328,1.4-3.1,4.812-3.725,9.7-7.373,14.513-11.1a60.419,60.419,0,0,1,5.045-3.725,3.017,3.017,0,0,1,2.561-.233c.854.466,1.242,1.552,1.863,2.328A.416.416,0,0,0,1468.23,498.9Z" transform="translate(-1338.779 -449.156)" fill="#fdce2f"/>
        <path id="XMLID_34_" d="M1408.326,449a4.593,4.593,0,0,1,4.424,2.794c.776,1.707,1.707,3.337,2.639,4.967a3.508,3.508,0,0,1-.233,4.036c-1.164,1.63-2.328,3.182-3.415,4.889a2.967,2.967,0,0,1-3.26,1.475c-2.949-.466-5.9-.931-8.77-1.552-3.259-.621-4.424-3.648-2.483-6.364s4.036-5.355,6.131-7.994A5.942,5.942,0,0,1,1408.326,449Z" transform="translate(-1328.312 -438.6)" fill="#fdce2f"/>
        <path id="XMLID_33_" d="M1474.844,565.5c1.552.155,4.191.31,6.83.543,2.173.233,3.725,2.794,3.415,5.355a61.316,61.316,0,0,1-.854,6.6,3.27,3.27,0,0,1-1.63,2.018,35.69,35.69,0,0,1-5.122,1.552,4.386,4.386,0,0,1-4.268-1.087c-1.94-1.94-3.881-3.958-5.9-5.9a3.2,3.2,0,0,1-.854-3.26C1467.549,566.975,1469.412,565.5,1474.844,565.5Z" transform="translate(-1343.996 -464.687)" fill="#fdce2f"/>
        <path id="XMLID_32_" d="M1351.3,458.677c0-2.949,1.319-3.8,3.648-2.794,3.8,1.707,7.528,3.492,11.253,5.277,2.173,1.009,4.346,2.1,6.519,3.182a6.7,6.7,0,0,1,1.242.776c1.319,1.319,1.164,2.483-.621,3.182-3.648,1.4-7.3,2.716-11.1,3.8-1.009.31-2.328-.388-3.415-.776-.931-.31-1.785-1.009-2.794-1.319a3.519,3.519,0,0,1-2.639-2.328C1352.619,464.42,1351.921,461.16,1351.3,458.677Z" transform="translate(-1318.239 -440.051)" fill="#fdce2f"/>
        <path id="XMLID_31_" d="M1471.5,513.246a16.149,16.149,0,0,1,.543-2.018c1.319-2.949,2.561-5.9,3.958-8.77a4.078,4.078,0,0,1,5.743-1.63,2.4,2.4,0,0,1,1.009,1.552c1.242,5.433,2.406,10.943,3.57,16.375a3.243,3.243,0,0,1-1.474,3.337,2.92,2.92,0,0,1-3.492.31c-2.328-1.242-4.656-2.561-7.062-3.8C1472.276,517.514,1471.655,515.651,1471.5,513.246Z" transform="translate(-1345.153 -450.072)" fill="#fdce2f"/>
        <path id="XMLID_30_" d="M1369.635,444.194a4.853,4.853,0,0,1,1.087.31c2.1,1.552,4.268,2.872,5.2,5.51.7,1.94,1.4,3.88,2.1,5.9.078.31.31.621.233.854-.155,1.009-.078,2.483-.7,3.027s-2.1.466-3.027.155c-4.734-1.94-9.391-4.036-14.047-6.053-1.164-.543-2.406-1.009-3.492-1.63a6.224,6.224,0,0,1-2.018-1.707,2.465,2.465,0,0,1,.155-1.785c.078-.31.543-.543.931-.7,4.268-1.319,8.537-2.561,12.805-3.8C1369.014,444.117,1369.169,444.194,1369.635,444.194Z" transform="translate(-1319.034 -437.52)" fill="#fdce2f"/>
        <path id="XMLID_29_" d="M1400.313,499.13c-1.708-.621-3.027-1.164-4.346-1.707-3.958-1.63-7.994-3.182-11.952-4.889-3.337-1.4-4.191-3.57-2.716-6.907l2.794-6.053a3.556,3.556,0,0,1,3.57-2.173,3.364,3.364,0,0,1,3.26,2.1c2.872,5.821,5.9,11.564,8.77,17.307A12.418,12.418,0,0,1,1400.313,499.13Z" transform="translate(-1324.8 -444.96)" fill="#fdce2f"/>
        <path id="XMLID_28_" d="M1340.87,454.8a4.487,4.487,0,0,1,3.8,3.26c.543,3.26,1.009,6.519,1.4,9.856.311,2.251-2.716,4.734-5.122,4.036-3.1-.854-6.209-1.863-9.313-2.872-2.406-.776-3.26-3.027-4.346-4.967-.155-.233.155-.931.388-1.087,4.191-2.716,8.459-5.355,12.65-7.994C1340.481,454.878,1340.792,454.878,1340.87,454.8Z" transform="translate(-1312.853 -439.899)" fill="#fdce2f"/>
        <path id="XMLID_27_" d="M1387.177,542.634c.078,1.475-1.087,2.173-2.561,1.785-1.552-.388-3.1-.931-4.656-1.475-5.821-1.863-11.641-3.725-17.54-5.588a4.12,4.12,0,0,1-1.319-.621,1.078,1.078,0,0,1-.155-1.94,11.093,11.093,0,0,1,1.164-.854c2.949-1.4,5.9-2.872,8.847-4.191a3.065,3.065,0,0,1,2.328.155,71.327,71.327,0,0,1,6.674,2.794,7.83,7.83,0,0,1,2.871,2.406,62.56,62.56,0,0,1,3.725,6.209A3.276,3.276,0,0,1,1387.177,542.634Z" transform="translate(-1320.278 -456.644)" fill="#fdce2f"/>
        <path id="XMLID_26_" d="M1383.5,446.421a14.861,14.861,0,0,1,.233-1.707c.621-2.639,1.087-3.1,3.8-3.415,3.415-.31,6.907-.543,10.4-.7a1.819,1.819,0,0,1,1.4.854c1.242,2.716,1.552,5.355-.854,7.761-2.1,2.173-3.88,4.656-5.9,6.907-2.406,2.716-5.277,2.173-6.519-1.164-.854-2.251-1.552-4.5-2.251-6.752A4.086,4.086,0,0,1,1383.5,446.421Z" transform="translate(-1325.449 -436.72)" fill="#fdce2f"/>
        <path id="XMLID_25_" d="M1522.2,508.247a6.653,6.653,0,0,1,.233-1.319c.7-2.328,1.4-4.657,2.1-6.907.621-1.94,3.725-3.337,5.51-2.406a2.471,2.471,0,0,1,1.009,1.164c2.1,4.113,4.113,8.227,6.131,12.34a3.171,3.171,0,0,1-.078,3.492,3.022,3.022,0,0,1-3.492,1.009c-2.716-.776-5.433-1.4-8.149-2.251C1523.364,512.748,1522.2,511.041,1522.2,508.247Z" transform="translate(-1356.506 -449.42)" fill="#fdce2f"/>
        <path id="XMLID_24_" d="M1413,503.315a15.124,15.124,0,0,1,1.475-3.182,44.848,44.848,0,0,1,4.113-4.5,3.062,3.062,0,0,1,3.57-.621,28.749,28.749,0,0,1,4.191,1.863,3.13,3.13,0,0,1,1.475,2.1,48.928,48.928,0,0,1,.621,8.227,4.61,4.61,0,0,1-6.131,3.958,42.112,42.112,0,0,1-7.605-4.579C1413.776,505.876,1413.543,504.479,1413,503.315Z" transform="translate(-1332.054 -448.834)" fill="#fdce2f"/>
        <path id="XMLID_23_" d="M1391,527.94a13.585,13.585,0,0,1,.854-1.863,9.621,9.621,0,0,0,1.94-6.286,4,4,0,0,1,1.63-3.492c1.863-1.4,3.725-2.794,5.666-4.113a2.263,2.263,0,0,1,2.1-.233c.31.155.466,1.319.31,1.94-1.475,7.3-3.027,14.513-4.579,21.73-.078.155,0,.466-.155.543-.466.7-.931,1.785-1.552,1.94-.621.078-1.552-.776-1.94-1.4-1.319-2.328-2.561-4.656-3.725-7.062A4.911,4.911,0,0,1,1391,527.94Z" transform="translate(-1327.128 -452.659)" fill="#fdce2f"/>
        <path id="XMLID_22_" d="M1358.1,527.428c.388-.931.543-1.63.854-2.251,3.8-7.528,7.528-15.056,11.331-22.507.233-.388.466-.776.7-1.087.931-1.086,1.863-1.009,2.251.388.7,2.406,1.242,4.889,1.785,7.373a3.189,3.189,0,0,1-.931,3.26,9.208,9.208,0,0,0-2.949,7.062,2.428,2.428,0,0,1-1.475,2.328c-3.492,1.707-6.907,3.415-10.4,5.122A9.8,9.8,0,0,1,1358.1,527.428Z" transform="translate(-1319.761 -450.208)" fill="#fdce2f"/>
        <path id="XMLID_21_" d="M1389.79,512.211a16.158,16.158,0,0,1-7.528-2.949c-1.087-.854-2.949-8.3-2.484-9.546a1.793,1.793,0,0,1,2.484-1.164c3.182,1.164,6.286,2.328,9.468,3.492,1.863.7,3.725,1.4,5.51,2.251,1.707.776,2.173,2.173.776,3.182a82.167,82.167,0,0,1-7.528,4.734A1.88,1.88,0,0,0,1389.79,512.211Z" transform="translate(-1324.599 -449.658)" fill="#fdce2f"/>
        <path id="XMLID_20_" d="M1377.535,474.39c1.785,0,2.794,1.009,2.173,2.639-1.552,4.191-3.027,8.537-7.218,11.02a2.192,2.192,0,0,1-1.707.078,28.357,28.357,0,0,1-4.191-2.483c-2.794-1.94-2.871-5.9.155-7.45,3.26-1.63,6.83-2.561,10.244-3.8C1377.147,474.312,1377.38,474.39,1377.535,474.39Z" transform="translate(-1321.192 -444.278)" fill="#fdce2f"/>
        <path id="XMLID_19_" d="M1519.88,527.67c0-1.319-.078-2.716,0-4.036a4.3,4.3,0,0,1,5.355-3.57,79.286,79.286,0,0,1,8.3,2.639c1.4.466,1.552.931.388,1.94-2.328,2.018-4.734,3.88-7.218,5.743q-2.1,1.63-4.191,3.027c-1.552,1.009-2.483.621-2.639-1.242a45.11,45.11,0,0,1,0-4.579Z" transform="translate(-1355.971 -454.485)" fill="#fdce2f"/>
        <path id="XMLID_18_" d="M1514.93,528.661a34.324,34.324,0,0,1-.233,3.8,3.267,3.267,0,0,1-3.88,2.872,23.9,23.9,0,0,1-5.277-1.319,4.1,4.1,0,0,1-.854-7.218c1.94-1.475,3.958-2.949,6.053-4.346,2.328-1.552,3.57-1.009,3.88,1.707C1514.774,525.557,1514.774,527.031,1514.93,528.661Z" transform="translate(-1352.185 -454.855)" fill="#fdce2f"/>
      </g>
      <line id="XMLID_16_" y2="180.905" transform="translate(1519.74 432.1)" fill="#fed22c"/>
    </g>
    <text id="XMLID_61_" transform="translate(-8312.061 -4806.17)" fill="#fdce2f" font-size="39" font-family="OpenSans, Open Sans"><tspan x="0" y="0">Design</tspan><tspan x="0" y="41.4">Innovation</tspan><tspan x="0" y="82.8">Centre</tspan></text>
    <text id="XMLID_60_" transform="translate(-8312.221 -4680.624)" fill="#fdce2f" font-size="30" font-family="OpenSans, Open Sans"><tspan x="0" y="0">University of Delhi</tspan></text>
  </g>
</svg>
